<mxfile host="app.diagrams.net" modified="2024-05-21T07:17:50.270Z" agent="Mozilla/5.0 (Windows NT 10.0; Win64; x64; rv:126.0) Gecko/20100101 Firefox/126.0" version="24.4.4" etag="MkAUrZFHNpkqIPK6y3Ak" type="github">
  <diagram name="Страница — 1" id="PqawooXzfF66FEXaFUoq">
    <mxGraphModel>
      <root>
        <mxCell id="0" />
        <mxCell id="1" parent="0" />
      </root>
    </mxGraphModel>
  </diagram>
</mxfile>
